<svg version="1.1" id="Layer_1" xmlns="http://www.w3.org/2000/svg" xmlns:xlink="http://www.w3.org/1999/xlink" x="0px" y="0px"
	 width="100%" viewBox="0 0 485 134" enable-background="new 0 0 485 134" xml:space="preserve">
<path fill="none" opacity="1.000000" stroke="none" 
	d="
M346.000000,135.000000 
	C230.666702,135.000000 115.833405,135.000000 1.000077,135.000000 
	C1.000051,90.333382 1.000051,45.666763 1.000026,1.000107 
	C162.666580,1.000071 324.333160,1.000071 485.999817,1.000036 
	C485.999878,45.666561 485.999878,90.333122 485.999939,134.999847 
	C439.500000,135.000000 393.000000,135.000000 346.000000,135.000000 
M87.876450,41.594322 
	C78.099602,35.408047 67.999527,29.886322 57.943562,25.405285 
	C55.881054,35.922298 48.026485,33.188004 42.330894,34.670444 
	C42.833771,35.670361 43.318150,36.633503 43.530972,37.056679 
	C40.576397,39.313080 37.662971,41.192059 35.155476,43.510136 
	C20.726633,56.848980 18.056526,77.092590 28.303665,94.477234 
	C37.477749,110.041428 57.663071,117.629906 75.152214,111.538475 
	C89.521217,106.533806 98.851898,96.484993 102.067787,81.406075 
	C105.432404,65.629799 100.296341,52.630604 87.876450,41.594322 
M311.999512,96.270699 
	C312.805389,97.179222 313.511749,98.727592 314.436584,98.871506 
	C316.828491,99.243675 319.316803,98.996277 322.349670,98.996277 
	C322.349670,93.976028 322.349670,89.435600 322.349670,84.463669 
	C323.606232,84.891991 324.204651,85.056641 324.771942,85.295296 
	C332.329346,88.474663 339.246521,86.929695 344.041504,80.980179 
	C348.978088,74.854980 349.230927,65.020439 344.617371,58.581921 
	C340.322266,52.587814 332.834686,50.449890 325.484894,53.046661 
	C324.521271,53.387115 323.399078,53.620647 322.409149,53.482468 
	C319.063141,53.015415 315.743591,52.358711 311.997040,51.701355 
	C311.997040,67.058540 311.997040,81.183273 311.999512,96.270699 
M170.705353,53.473614 
	C164.572571,50.379608 159.189682,51.617264 154.305420,56.684994 
	C153.954803,55.000988 153.677063,53.667019 153.432419,52.492012 
	C149.929993,52.492012 146.852951,52.492012 143.638443,52.492012 
	C143.638443,63.874367 143.638443,74.919098 143.638443,86.205109 
	C147.163986,86.205109 150.370224,86.205109 153.875275,86.205109 
	C153.875275,80.363136 153.807892,74.889305 153.895264,69.417938 
	C153.973923,64.492363 157.341705,60.807789 161.735260,60.916073 
	C167.202942,61.050823 166.744263,65.348862 166.854858,68.899323 
	C167.033768,74.643677 166.902985,80.397690 166.902985,86.243546 
	C170.638428,86.243546 173.710251,86.243546 176.975479,86.243546 
	C176.975479,78.615288 177.569870,71.246986 176.721954,64.048584 
	C176.304871,60.507816 173.217499,57.281593 170.705353,53.473614 
M367.192474,86.752388 
	C373.598022,87.423874 379.749207,87.199478 384.643494,82.114792 
	C382.095001,78.338318 379.641083,76.228340 374.682892,77.843773 
	C370.722198,79.134224 366.139435,78.778160 363.462250,72.995789 
	C371.653320,72.995789 379.179260,72.995789 386.616028,72.995789 
	C387.950806,60.678501 381.976990,52.501923 371.702362,51.876041 
	C362.679077,51.326385 354.494598,57.348640 352.913544,65.701073 
	C351.073242,75.422897 356.016449,83.034409 367.192474,86.752388 
M246.689651,83.962585 
	C248.358246,84.697533 249.980896,85.570534 251.703293,86.143890 
	C259.804749,88.840752 269.082092,85.089149 273.011230,77.606110 
	C276.929993,70.142815 274.899597,60.948425 268.154694,55.613930 
	C260.553741,49.602390 249.497177,50.785400 243.034378,58.301773 
	C236.664520,65.710045 237.899902,75.923294 246.689651,83.962585 
M280.264923,63.135857 
	C281.740051,69.734032 287.420105,71.257362 292.561859,73.606064 
	C293.925720,74.229065 294.721710,76.095276 295.778442,77.390656 
	C293.824097,77.689522 290.797241,78.930473 290.094238,78.130157 
	C286.308044,73.819839 282.928497,76.138474 279.264313,77.778976 
	C282.831543,86.939766 294.130676,90.165062 302.163513,84.543282 
	C308.781281,79.911827 308.078644,71.116669 300.748596,67.678604 
	C298.045471,66.410751 295.121277,65.599670 292.471497,64.241562 
	C291.659637,63.825455 291.424927,62.283176 290.925903,61.256618 
	C292.100006,60.998272 293.913177,60.125584 294.348022,60.577919 
	C298.119385,64.500877 301.494171,61.503925 305.105316,60.564350 
	C302.365936,53.926941 297.344513,51.105232 290.312225,52.019554 
	C284.208679,52.813129 281.019562,56.070175 280.264923,63.135857 
M433.095245,65.661423 
	C433.097168,68.487762 433.051056,71.315102 433.109406,74.140274 
	C433.348846,85.734894 439.387787,89.644257 450.782471,85.443634 
	C450.782471,82.897865 450.782471,80.292839 450.782471,77.687813 
	C450.483551,78.048439 450.184631,78.409065 449.885742,78.769691 
	C447.836761,77.494339 444.313843,76.489380 444.020782,74.891891 
	C443.207611,70.459404 443.738831,65.780266 443.738831,61.164394 
	C446.475922,60.903603 448.554016,60.705605 450.523621,60.517941 
	C450.523621,57.548431 450.523621,54.993195 450.523621,52.419220 
	C448.051422,52.179226 445.969055,51.977070 443.902405,51.776443 
	C443.709106,49.098156 443.545105,46.825768 443.379974,44.537743 
	C439.780151,44.537743 436.573181,44.537743 433.299469,44.537743 
	C433.134430,47.208263 432.993469,49.489082 432.858459,51.674191 
	C431.190216,52.095295 429.817352,52.441837 428.593231,52.750843 
	C428.593231,55.521324 428.593231,57.953011 428.593231,60.384697 
	C429.100677,60.172215 429.608124,59.959732 430.115570,59.747250 
	C431.108704,61.402851 432.101837,63.058449 433.095245,65.661423 
M394.885895,79.436226 
	C403.884705,89.698784 417.700592,89.594734 423.920441,79.013023 
	C420.366241,76.968193 417.332794,75.049828 412.554657,77.085556 
	C410.257355,78.064316 405.033569,76.401451 403.695862,74.302643 
	C402.130249,71.846298 402.443665,67.263008 403.601807,64.237831 
	C405.014435,60.547882 409.562714,59.645470 412.637665,61.388718 
	C417.292114,64.027390 420.347046,61.981441 424.207550,59.601166 
	C422.797760,58.051559 421.733643,56.542801 420.353790,55.423084 
	C413.892273,50.179707 404.629181,50.548618 397.841797,56.199638 
	C391.294342,61.650890 390.053162,69.990730 394.885895,79.436226 
M186.854538,61.944847 
	C186.886688,65.942314 186.904388,69.939949 186.953735,73.937210 
	C187.098679,85.680527 192.892776,89.556679 204.538757,85.481010 
	C204.538757,82.972893 204.538757,80.385445 204.538757,77.797997 
	C204.165222,78.191383 203.791672,78.584770 203.418137,78.978165 
	C201.359299,77.466843 197.912720,76.246521 197.522430,74.385323 
	C196.632828,70.142883 197.241653,65.586243 197.241653,61.134712 
	C199.996231,60.899391 202.098709,60.719784 204.310211,60.530861 
	C204.310211,57.651325 204.310211,55.089291 204.310211,52.425446 
	C201.868744,52.221027 199.765335,52.044910 197.464874,51.852295 
	C197.246063,49.243614 197.044907,46.845272 196.851318,44.537144 
	C193.321487,44.537144 190.262756,44.537144 187.139404,44.537144 
	C186.985519,47.202709 186.853195,49.494579 186.725586,51.704826 
	C185.039444,52.086571 183.643768,52.402554 182.334198,52.699039 
	C182.334198,55.439903 182.334198,57.880562 182.334198,60.474228 
	C183.846802,60.725430 185.129074,60.938381 186.854538,61.944847 
M228.446869,62.437393 
	C230.521179,62.117935 232.595505,61.798473 234.628250,61.485416 
	C234.628250,58.222454 234.628250,55.294758 234.628250,52.289829 
	C228.714172,50.858185 224.663864,53.595085 221.000732,57.976562 
	C220.728546,55.790768 220.529083,54.189041 220.323288,52.536381 
	C216.843613,52.536381 213.644135,52.536381 210.421631,52.536381 
	C210.421631,63.985588 210.421631,75.040215 210.421631,86.151245 
	C213.937820,86.151245 217.135605,86.151245 220.684952,86.151245 
	C220.684952,81.903709 220.743851,78.095871 220.670792,74.290565 
	C220.567688,68.920036 222.764221,65.014175 228.446869,62.437393 
M126.241272,62.538666 
	C126.241272,70.447273 126.241272,78.355873 126.241272,86.319656 
	C130.129150,86.319656 133.220627,86.319656 136.453964,86.319656 
	C136.453964,74.836670 136.453964,63.650085 136.453964,52.423164 
	C132.966400,52.423164 129.879196,52.423164 126.241280,52.423164 
	C126.241280,55.655064 126.241280,58.606022 126.241272,62.538666 
M129.721054,48.877121 
	C131.960587,48.877121 134.200104,48.877121 136.617920,48.877121 
	C136.617920,45.629173 136.617920,43.075180 136.617920,40.241287 
	C133.182678,40.241287 129.989334,40.241287 126.257812,40.241287 
	C127.388321,43.275188 123.456863,47.198582 129.721054,48.877121 
z"/>
<path fill="#1199FC" opacity="1.000000" stroke="none" 
	d="
M88.154053,41.819946 
	C100.296341,52.630604 105.432404,65.629799 102.067787,81.406075 
	C98.851898,96.484993 89.521217,106.533806 75.152214,111.538475 
	C57.663071,117.629906 37.477749,110.041428 28.303665,94.477234 
	C18.056526,77.092590 20.726633,56.848980 35.155476,43.510136 
	C37.662971,41.192059 40.576397,39.313080 43.530972,37.056679 
	C43.318150,36.633503 42.833771,35.670361 42.330894,34.670444 
	C48.026485,33.188004 55.881054,35.922298 57.943562,25.405285 
	C67.999527,29.886322 78.099602,35.408047 88.154053,41.819946 
M39.579685,86.794586 
	C40.331627,87.683350 41.033524,88.620789 41.843197,89.453407 
	C50.688339,98.549232 63.659737,100.783913 75.334801,95.245613 
	C86.453720,89.971138 92.619087,78.337944 91.032684,65.625885 
	C89.558594,53.813820 80.509651,43.983917 68.778564,41.736633 
	C67.252472,41.444283 65.404579,41.935913 63.910141,42.556564 
	C60.576805,43.940929 57.584427,45.675591 53.595573,44.054535 
	C51.831253,43.337521 48.721909,43.777328 47.198746,44.954414 
	C32.773201,56.102276 30.002993,70.849602 39.579685,86.794586 
z"/>
<path fill="#2487F2" opacity="1.000000" stroke="none" 
	d="
M311.998291,95.789352 
	C311.997040,81.183273 311.997040,67.058540 311.997040,51.701355 
	C315.743591,52.358711 319.063141,53.015415 322.409149,53.482468 
	C323.399078,53.620647 324.521271,53.387115 325.484894,53.046661 
	C332.834686,50.449890 340.322266,52.587814 344.617371,58.581921 
	C349.230927,65.020439 348.978088,74.854980 344.041504,80.980179 
	C339.246521,86.929695 332.329346,88.474663 324.771942,85.295296 
	C324.204651,85.056641 323.606232,84.891991 322.349670,84.463669 
	C322.349670,89.435600 322.349670,93.976028 322.349670,98.996277 
	C319.316803,98.996277 316.828491,99.243675 314.436584,98.871506 
	C313.511749,98.727592 312.805389,97.179222 311.998291,95.789352 
M335.397644,63.002251 
	C334.579376,62.454323 333.831909,61.662621 332.930542,61.400951 
	C329.169647,60.309135 325.517303,60.526360 323.278229,64.177162 
	C321.010529,67.874657 321.233154,71.891815 323.923157,75.296837 
	C326.370331,78.394539 329.816589,78.802460 333.323029,77.129341 
	C337.351227,75.207275 338.342590,71.630554 337.750702,67.575806 
	C337.547882,66.186485 336.558624,64.911957 335.397644,63.002251 
z"/>
<path fill="#2889F2" opacity="1.000000" stroke="none" 
	d="
M171.021927,53.693321 
	C173.217499,57.281593 176.304871,60.507816 176.721954,64.048584 
	C177.569870,71.246986 176.975479,78.615288 176.975479,86.243546 
	C173.710251,86.243546 170.638428,86.243546 166.902985,86.243546 
	C166.902985,80.397690 167.033768,74.643677 166.854858,68.899323 
	C166.744263,65.348862 167.202942,61.050823 161.735260,60.916073 
	C157.341705,60.807789 153.973923,64.492363 153.895264,69.417938 
	C153.807892,74.889305 153.875275,80.363136 153.875275,86.205109 
	C150.370224,86.205109 147.163986,86.205109 143.638443,86.205109 
	C143.638443,74.919098 143.638443,63.874367 143.638443,52.492012 
	C146.852951,52.492012 149.929993,52.492012 153.432419,52.492012 
	C153.677063,53.667019 153.954803,55.000988 154.305420,56.684994 
	C159.189682,51.617264 164.572571,50.379608 171.021927,53.693321 
z"/>
<path fill="#2487F2" opacity="1.000000" stroke="none" 
	d="
M366.797668,86.612076 
	C356.016449,83.034409 351.073242,75.422897 352.913544,65.701073 
	C354.494598,57.348640 362.679077,51.326385 371.702362,51.876041 
	C381.976990,52.501923 387.950806,60.678501 386.616028,72.995789 
	C379.179260,72.995789 371.653320,72.995789 363.462250,72.995789 
	C366.139435,78.778160 370.722198,79.134224 374.682892,77.843773 
	C379.641083,76.228340 382.095001,78.338318 384.643494,82.114792 
	C379.749207,87.199478 373.598022,87.423874 366.797668,86.612076 
M373.204254,65.906952 
	C374.433624,65.819221 375.662994,65.731499 377.263916,65.617256 
	C376.063843,61.484753 373.279022,60.334927 370.026611,60.528229 
	C367.032013,60.706211 364.452271,61.952091 364.137238,65.906998 
	C367.055695,65.906998 369.680450,65.906998 373.204254,65.906952 
z"/>
<path fill="#2487F2" opacity="1.000000" stroke="none" 
	d="
M246.388351,83.750793 
	C237.899902,75.923294 236.664520,65.710045 243.034378,58.301773 
	C249.497177,50.785400 260.553741,49.602390 268.154694,55.613930 
	C274.899597,60.948425 276.929993,70.142815 273.011230,77.606110 
	C269.082092,85.089149 259.804749,88.840752 251.703293,86.143890 
	C249.980896,85.570534 248.358246,84.697533 246.388351,83.750793 
M260.518219,61.569180 
	C259.725586,61.366318 258.943848,61.072117 258.138489,60.975758 
	C253.683456,60.442726 250.720642,62.486145 249.477386,66.642059 
	C248.283249,70.633797 249.263046,74.287300 252.822342,76.700729 
	C255.882736,78.775894 259.213562,78.559807 262.004761,76.142998 
	C265.432709,73.174873 265.886597,69.347450 264.007690,65.350563 
	C263.406250,64.071175 262.157837,63.095932 260.518219,61.569180 
z"/>
<path fill="#2688F2" opacity="1.000000" stroke="none" 
	d="
M280.225555,62.748550 
	C281.019562,56.070175 284.208679,52.813129 290.312225,52.019554 
	C297.344513,51.105232 302.365936,53.926941 305.105316,60.564350 
	C301.494171,61.503925 298.119385,64.500877 294.348022,60.577919 
	C293.913177,60.125584 292.100006,60.998272 290.925903,61.256615 
	C291.424927,62.283176 291.659637,63.825455 292.471497,64.241562 
	C295.121277,65.599670 298.045471,66.410751 300.748596,67.678604 
	C308.078644,71.116669 308.781281,79.911827 302.163513,84.543282 
	C294.130676,90.165062 282.831543,86.939766 279.264313,77.778976 
	C282.928497,76.138474 286.308044,73.819839 290.094238,78.130157 
	C290.797241,78.930473 293.824097,77.689522 295.778442,77.390656 
	C294.721710,76.095276 293.925720,74.229065 292.561859,73.606064 
	C287.420105,71.257362 281.740051,69.734032 280.225555,62.748550 
z"/>
<path fill="#2D8CF3" opacity="1.000000" stroke="none" 
	d="
M433.095093,65.187737 
	C432.101837,63.058449 431.108704,61.402851 430.115570,59.747250 
	C429.608124,59.959732 429.100677,60.172215 428.593231,60.384697 
	C428.593231,57.953011 428.593231,55.521324 428.593231,52.750843 
	C429.817352,52.441837 431.190216,52.095295 432.858459,51.674191 
	C432.993469,49.489082 433.134430,47.208263 433.299469,44.537743 
	C436.573181,44.537743 439.780151,44.537743 443.379974,44.537743 
	C443.545105,46.825768 443.709106,49.098156 443.902405,51.776443 
	C445.969055,51.977070 448.051422,52.179226 450.523621,52.419220 
	C450.523621,54.993195 450.523621,57.548431 450.523621,60.517941 
	C448.554016,60.705605 446.475922,60.903603 443.738831,61.164394 
	C443.738831,65.780266 443.207611,70.459404 444.020782,74.891891 
	C444.313843,76.489380 447.836761,77.494339 449.885742,78.769691 
	C450.184631,78.409065 450.483551,78.048439 450.782471,77.687813 
	C450.782471,80.292839 450.782471,82.897865 450.782471,85.443634 
	C439.387787,89.644257 433.348846,85.734894 433.109406,74.140274 
	C433.051056,71.315102 433.097168,68.487762 433.095093,65.187737 
z"/>
<path fill="#2588F2" opacity="1.000000" stroke="none" 
	d="
M394.681213,79.123779 
	C390.053162,69.990730 391.294342,61.650890 397.841797,56.199638 
	C404.629181,50.548618 413.892273,50.179707 420.353790,55.423084 
	C421.733643,56.542801 422.797760,58.051559 424.207550,59.601166 
	C420.347046,61.981441 417.292114,64.027390 412.637665,61.388718 
	C409.562714,59.645470 405.014435,60.547882 403.601807,64.237831 
	C402.443665,67.263008 402.130249,71.846298 403.695862,74.302643 
	C405.033569,76.401451 410.257355,78.064316 412.554657,77.085556 
	C417.332794,75.049828 420.366241,76.968193 423.920441,79.013023 
	C417.700592,89.594734 403.884705,89.698784 394.681213,79.123779 
z"/>
<path fill="#2889F2" opacity="1.000000" stroke="none" 
	d="
M186.632935,61.548088 
	C185.129074,60.938381 183.846802,60.725430 182.334198,60.474228 
	C182.334198,57.880562 182.334198,55.439903 182.334198,52.699039 
	C183.643768,52.402554 185.039444,52.086571 186.725586,51.704826 
	C186.853195,49.494579 186.985519,47.202709 187.139404,44.537144 
	C190.262756,44.537144 193.321487,44.537144 196.851318,44.537144 
	C197.044907,46.845272 197.246063,49.243614 197.464874,51.852295 
	C199.765335,52.044910 201.868744,52.221027 204.310211,52.425446 
	C204.310211,55.089291 204.310211,57.651325 204.310211,60.530861 
	C202.098709,60.719784 199.996231,60.899391 197.241653,61.134712 
	C197.241653,65.586243 196.632828,70.142883 197.522430,74.385323 
	C197.912720,76.246521 201.359299,77.466843 203.418137,78.978165 
	C203.791672,78.584770 204.165222,78.191383 204.538757,77.797997 
	C204.538757,80.385445 204.538757,82.972893 204.538757,85.481010 
	C192.892776,89.556679 187.098679,85.680527 186.953735,73.937210 
	C186.904388,69.939949 186.886688,65.942314 186.632935,61.548088 
z"/>
<path fill="#2C8BF3" opacity="1.000000" stroke="none" 
	d="
M228.082367,62.600883 
	C222.764221,65.014175 220.567688,68.920036 220.670792,74.290565 
	C220.743851,78.095871 220.684952,81.903709 220.684952,86.151245 
	C217.135605,86.151245 213.937820,86.151245 210.421631,86.151245 
	C210.421631,75.040215 210.421631,63.985588 210.421631,52.536381 
	C213.644135,52.536381 216.843613,52.536381 220.323288,52.536381 
	C220.529083,54.189041 220.728546,55.790768 221.000732,57.976562 
	C224.663864,53.595085 228.714172,50.858185 234.628250,52.289829 
	C234.628250,55.294758 234.628250,58.222454 234.628250,61.485416 
	C232.595505,61.798473 230.521179,62.117935 228.082367,62.600883 
z"/>
<path fill="#308DF3" opacity="1.000000" stroke="none" 
	d="
M126.241272,62.047821 
	C126.241280,58.606022 126.241280,55.655064 126.241280,52.423164 
	C129.879196,52.423164 132.966400,52.423164 136.453964,52.423164 
	C136.453964,63.650085 136.453964,74.836670 136.453964,86.319656 
	C133.220627,86.319656 130.129150,86.319656 126.241272,86.319656 
	C126.241272,78.355873 126.241272,70.447273 126.241272,62.047821 
z"/>
<path fill="#348FF3" opacity="1.000000" stroke="none" 
	d="
M129.276062,48.874378 
	C123.456863,47.198582 127.388321,43.275188 126.257812,40.241287 
	C129.989334,40.241287 133.182678,40.241287 136.617920,40.241287 
	C136.617920,43.075180 136.617920,45.629173 136.617920,48.877121 
	C134.200104,48.877121 131.960587,48.877121 129.276062,48.874378 
z"/>
<path fill="#FDFEFF" opacity="1.000000" stroke="none" 
	d="
M39.351501,86.509346 
	C30.002993,70.849602 32.773201,56.102276 47.198746,44.954414 
	C48.721909,43.777328 51.831253,43.337521 53.595573,44.054535 
	C57.584427,45.675591 60.576805,43.940929 63.910141,42.556564 
	C65.404579,41.935913 67.252472,41.444283 68.778564,41.736633 
	C80.509651,43.983917 89.558594,53.813820 91.032684,65.625885 
	C92.619087,78.337944 86.453720,89.971138 75.334801,95.245613 
	C63.659737,100.783913 50.688339,98.549232 41.843197,89.453407 
	C41.033524,88.620789 40.331627,87.683350 39.351501,86.509346 
z"/>
<path fill="#F9FBFF" opacity="1.000000" stroke="none" 
	d="
M335.663147,63.293617 
	C336.558624,64.911957 337.547882,66.186485 337.750702,67.575806 
	C338.342590,71.630554 337.351227,75.207275 333.323029,77.129341 
	C329.816589,78.802460 326.370331,78.394539 323.923157,75.296837 
	C321.233154,71.891815 321.010529,67.874657 323.278229,64.177162 
	C325.517303,60.526360 329.169647,60.309135 332.930542,61.400951 
	C333.831909,61.662621 334.579376,62.454323 335.663147,63.293617 
z"/>
<path fill="#ECF4FE" opacity="1.000000" stroke="none" 
	d="
M372.754730,65.906975 
	C369.680450,65.906998 367.055695,65.906998 364.137238,65.906998 
	C364.452271,61.952091 367.032013,60.706211 370.026611,60.528229 
	C373.279022,60.334927 376.063843,61.484753 377.263916,65.617256 
	C375.662994,65.731499 374.433624,65.819221 372.754730,65.906975 
z"/>
<path fill="#F7FBFF" opacity="1.000000" stroke="none" 
	d="
M260.861816,61.775356 
	C262.157837,63.095932 263.406250,64.071175 264.007690,65.350563 
	C265.886597,69.347450 265.432709,73.174873 262.004761,76.142998 
	C259.213562,78.559807 255.882736,78.775894 252.822342,76.700729 
	C249.263046,74.287300 248.283249,70.633797 249.477386,66.642059 
	C250.720642,62.486145 253.683456,60.442726 258.138489,60.975758 
	C258.943848,61.072117 259.725586,61.366318 260.861816,61.775356 
z"/>
</svg>